# xmcd CD database file
#
# Track frame offsets:
#	150
#	18957
#	37746
#	62968
#	83723
#	106717
#	123419
#	142789
#	159133
#	178518
#	194940
#	216469
#	229174
#	251910
#
# Disc length: 3563 seconds
#
# Revision: 6
# Processed by: cddbd v1.4PL0 Copyright (c) Steve Scherf et al.
# Submitted via: CDex 1.50
#
DISCID=ba0de90e
DTITLE=Zezé di Camargo and Luciano - Zezé di Camargo and Luciano
DYEAR=2002
DGENRE=Country
TTITLE0=Indiferenca
TTITLE1=Seus olhos
TTITLE2=Preciso ser amado
TTITLE3=Quando a gente ama de mais
TTITLE4=Não tenha dúvida
TTITLE5=E Deus por nós
TTITLE6=Refem de mim
TTITLE7=Saudade dos Beatles
TTITLE8=Outra vez por amor
TTITLE9=Brigue comigo, mas não vá
TTITLE10=Vivendo por viver
TTITLE11=Menina
TTITLE12=Sorriso bonito
TTITLE13=200 anos
EXTD=YEAR: 2002
EXTT0=
EXTT1=
EXTT2=
EXTT3=
EXTT4=
EXTT5=
EXTT6=
EXTT7=
EXTT8=
EXTT9=
EXTT10=
EXTT11=
EXTT12=
EXTT13=
PLAYORDER=
